<svg xmlns="http://www.w3.org/2000/svg" viewBox="0 0 800 420" aria-hidden="true">
  <path fill="#dce4ec" d="M80 120 Q120 80 180 90 L240 70 Q300 60 360 85 L420 75 Q480 70 540 95 L600 85 Q660 80 720 110 L760 140 Q780 180 750 220 L720 260 Q700 300 660 320 L600 340 Q540 360 480 350 L420 365 Q360 375 300 360 L240 370 Q180 380 140 350 L100 320 Q70 280 75 240 L80 200 Q75 160 80 120 Z M140 200 Q160 185 190 195 L210 220 Q200 250 170 245 L145 225 Z M480 160 Q520 150 560 170 L580 200 Q570 230 530 225 L500 200 Z M600 240 Q640 230 680 250 L700 280 Q690 310 650 305 L620 275 Z"/>
</svg>
